<svg id="Layer_1" data-name="Layer 1" xmlns="http://www.w3.org/2000/svg" viewBox="0 0 1940 649"><defs><style>.cls-1{fill:#e3f3f4;}.cls-2{fill:#991d1d;}</style></defs><path class="cls-1" d="M175.37,401.89l46.86-55.35c13.65,17,26.56,25.46,41,25.46,18.08,0,28-11.06,28-32.1V241.76H203.4V176.09H377.18V334.74c0,70.84-37.26,105.52-106.62,105.52C230.34,440.26,196.77,427,175.37,401.89Z"/><path class="cls-1" d="M885.23,232.54V434.36H805.9V415.17c-15.12,15.5-35.42,22.88-57.18,22.88-48.34,0-84.86-28.41-84.86-94.09V232.54h83.38v97c0,28.78,10,38.38,26.2,38.38,14.39,0,28.41-10.7,28.41-40.59V232.54Z"/><path class="cls-1" d="M1066.76,228.85v73.79a115.21,115.21,0,0,0-18.45-1.48c-25.09,0-42.8,11.44-42.8,43.54v89.66H922.13V232.54h79.32v21.77C1016.21,237.33,1038.72,228.85,1066.76,228.85Z"/><path class="cls-1" d="M1313.22,319.24V434.36h-83.38V333.63c0-25.09-9.6-34.68-24.73-34.68-17,0-31.36,10.7-31.36,40.59v94.82h-83.38V232.54h79.32v19.92c15.87-15.86,37.27-23.61,60.88-23.61C1277.06,228.85,1313.22,255.78,1313.22,319.24Z"/><path class="cls-1" d="M1566.69,352.82H1426.48c5.9,15.5,19.93,23.61,40.59,23.61,18.44,0,28.78-4.79,42.06-14.76l43.54,43.91c-19.56,21.4-48,32.47-88.18,32.47-74.16,0-122.13-44.65-122.13-104.79,0-61.24,49.07-104.41,114.38-104.41,59.77,0,111,36.16,111,104.41C1567.79,339.17,1567.05,346.91,1566.69,352.82ZM1425,312.6h64.93c-3.31-17-15.49-26.93-32.46-26.93C1440.13,285.67,1428.33,295.63,1425,312.6Z"/><path class="cls-1" d="M1815,232.54l-83,205.88c-22.14,55.34-54.61,71.21-97.41,71.21-22.14,0-47.6-7-61.24-18.08L1601,434.36c8.11,6.27,19.55,10.7,29.51,10.7s16.24-2.95,20.67-8.12l-84.87-204.4h85.6l41.7,108.1L1736,232.54Z"/><path class="cls-1" d="M612.05,252.06a93.22,93.22,0,0,1-3.72,16.21C586.59,331.14,523.49,382.33,456.51,381c53.67-15.72,95-51.91,120.67-99.82,10.68-19,13.67-37.53,11-53.66a110.24,110.24,0,1,0,23.87,24.58Z"/><path class="cls-1" d="M475.84,382.26c39.4-10.07,74.88-32.09,99.6-64.16,19-23.83,33.9-53,33.4-84-.71-20.55-5.94-46.15-22.64-59.42-17.75-14-43.06-10.92-62.65-1.74a124.19,124.19,0,0,0-21,12.56A80.92,80.92,0,0,1,542.7,154c23-8.25,48.83-3.45,65,15.9,12.08,14.1,17.62,32.49,20,50.32,6,40.17-12.9,79.84-39.71,108.71-28.36,31.8-69.66,52.31-112.21,53.3Z"/><path class="cls-2" d="M519.08,200.38c-3.7,2.3-15.65,10.38-20.56,26.07A46.31,46.31,0,0,0,497,247.29a43.5,43.5,0,0,0-15.91-16.84c-13.64-8.17-27.38-5.95-31-5.25l.1-.08a36.83,36.83,0,0,0,19.74-16.58c7.78-14.06,3-28,2.21-30.11l0-.13a42.22,42.22,0,0,0,46.9,22.08Z"/></svg>